<svg width="53" height="43" viewBox="0 0 53 43" fill="none" xmlns="http://www.w3.org/2000/svg">
<path d="M0 43V38.2222H53V43H0ZM7.22727 35.8333C5.90227 35.8333 4.76799 35.3655 3.82443 34.4299C2.88087 33.4942 2.40909 32.3694 2.40909 31.0556V4.77778C2.40909 3.46389 2.88087 2.33912 3.82443 1.40347C4.76799 0.467824 5.90227 0 7.22727 0H45.7727C47.0977 0 48.232 0.467824 49.1756 1.40347C50.1191 2.33912 50.5909 3.46389 50.5909 4.77778V31.0556C50.5909 32.3694 50.1191 33.4942 49.1756 34.4299C48.232 35.3655 47.0977 35.8333 45.7727 35.8333H7.22727ZM7.22727 31.0556H45.7727V4.77778H7.22727V31.0556Z" fill="black"/>
</svg>
