<svg width="134" height="137" viewBox="0 0 134 137" fill="none" xmlns="http://www.w3.org/2000/svg">
<path d="M127.191 74.7453H88.6138V85.2809H127.191V74.7453Z" fill="black"/>
<path d="M127.191 59.9908H88.6138V70.5293H127.191V59.9908Z" fill="black"/>
<path d="M127.191 89.494H88.6138V100.033H127.191V89.494Z" fill="black"/>
<path d="M108.713 31.7423L38.7071 0.199117C38.359 0.042604 37.9756 -0.00994237 37.6003 0.0473929C37.2249 0.104728 36.8724 0.269669 36.5825 0.523647L0.712891 32.1334L3.3456 35.344L38.2437 4.58606L105.871 35.0571V100.033H109.933V33.6778C109.934 33.2667 109.819 32.8642 109.602 32.5201C109.386 32.176 109.076 31.9056 108.713 31.7423Z" fill="black"/>
<path d="M30.7901 29.5285H45.0034C45.3192 29.529 45.6308 29.4531 45.9135 29.3069C46.1962 29.1606 46.4421 28.948 46.6318 28.6859C46.8214 28.4238 46.9497 28.1194 47.0062 27.7969C47.0628 27.4744 47.0462 27.1426 46.9577 26.8279L39.8468 1.53778C39.7273 1.09531 39.4716 0.705542 39.1188 0.427907C38.7659 0.150272 38.3353 0 37.8925 0C37.4498 0 37.0191 0.150272 36.6663 0.427907C36.3135 0.705542 36.0578 1.09531 35.9382 1.53778L28.8442 26.8279C28.7563 27.1426 28.7401 27.4741 28.7969 27.7964C28.8537 28.1186 28.982 28.4228 29.1716 28.6847C29.3611 28.9467 29.6068 29.1593 29.8891 29.3057C30.1715 29.4521 30.4828 29.5284 30.7985 29.5285H30.7901ZM37.8981 9.65682L42.2981 25.3038H33.4982L37.8981 9.65682Z" fill="black"/>
<path d="M133.415 44.9031L121.315 32.258C121.127 32.0602 120.903 31.9033 120.655 31.7964C120.408 31.6894 120.143 31.6346 119.875 31.635H96.1943C95.9783 31.5944 95.757 31.5944 95.541 31.635H2.02536C1.57729 31.636 1.14213 31.7908 0.787733 32.0754C0.433336 32.36 0.179623 32.7582 0.0661571 33.2081C-0.0473088 33.658 -0.0141502 34.1342 0.160463 34.5625C0.335076 34.9908 0.641327 35.347 1.03146 35.5757L22.6906 48.2208C22.9933 48.4001 23.336 48.494 23.6845 48.4932H28.7517V131.732C28.7524 132.291 28.9664 132.827 29.3468 133.222C29.7272 133.617 30.243 133.84 30.7814 133.842H44.9946C45.2614 133.842 45.5256 133.787 45.772 133.681C46.0184 133.575 46.2423 133.42 46.4308 133.224C46.6193 133.028 46.7688 132.795 46.8706 132.539C46.9725 132.283 47.0247 132.009 47.0243 131.732V48.4932H131.972C132.372 48.4923 132.763 48.3687 133.096 48.138C133.429 47.9072 133.689 47.5795 133.843 47.1961C133.997 46.8126 134.039 46.3904 133.963 45.9825C133.887 45.5745 133.696 45.199 133.415 44.9031ZM78.8486 44.2772H64.2835L71.5674 36.7232L78.8486 44.2772ZM76.4671 35.8481H90.9037L83.684 43.3413L76.4671 35.8481ZM95.8704 36.6536L103.216 44.2772H88.5251L95.8704 36.6536ZM100.834 35.8481H114.972L107.903 43.1964L100.834 35.8481ZM24.2177 44.2772L9.76715 35.8481H30.7897C30.523 35.8481 30.2588 35.9027 30.0124 36.0087C29.7659 36.1148 29.5421 36.2702 29.3536 36.4661C29.165 36.662 29.0156 36.8946 28.9138 37.1505C28.8119 37.4064 28.7597 37.6807 28.7601 37.9575V44.2801H24.2177V44.2772ZM42.9733 44.2772H32.8194V40.0641H42.9733V44.2772ZM42.9733 94.8517H32.8194V84.3161H42.9733V94.8517ZM32.8222 99.0677H42.9901V109.606H32.8222V99.0677ZM42.9733 80.1001H32.8194V69.5644H42.9733V80.1001ZM42.9733 129.623H32.8194V113.819H42.9733V129.623ZM42.9733 65.3513H32.8194V48.4932H42.9733V65.3513ZM45.003 35.8481H66.6649L58.5407 44.2772H47.0327V37.9547C47.0331 37.6779 46.9808 37.4038 46.8789 37.1481C46.7771 36.8923 46.6276 36.6599 46.439 36.4642C46.2505 36.2686 46.0266 36.1134 45.7802 36.0077C45.5338 35.902 45.2697 35.8477 45.003 35.8481ZM112.594 44.2772L119.869 36.729L127.094 44.2772H112.594Z" fill="black"/>
<path d="M39.9187 23.203H29.7759C28.9757 23.203 28.1833 23.3667 27.444 23.6846C26.7047 24.0025 26.0331 24.4685 25.4673 25.0559C24.9016 25.6433 24.453 26.3406 24.147 27.108C23.841 27.8755 23.6837 28.6979 23.6841 29.5285V50.5968C23.6841 50.8738 23.7367 51.1481 23.8388 51.4041C23.9409 51.66 24.0906 51.8925 24.2794 52.0884C24.4681 52.2843 24.6922 52.4397 24.9388 52.5457C25.1853 52.6517 25.4496 52.7063 25.7165 52.7063H50.081C50.348 52.7066 50.6124 52.6523 50.8592 52.5465C51.106 52.4406 51.3302 52.2852 51.519 52.0893C51.7078 51.8933 51.8575 51.6606 51.9595 51.4045C52.0615 51.1484 52.1138 50.874 52.1134 50.5968V35.8452C52.1112 32.4905 50.8253 29.2741 48.5384 26.9033C46.2515 24.5325 43.151 23.2015 39.9187 23.203Z" fill="black"/>
<path d="M41.088 28.4766H29.7419C29.3917 28.4766 29.0558 28.621 28.8082 28.8781C28.5605 29.1351 28.4214 29.4837 28.4214 29.8472V40.1858C28.4214 40.5495 28.5604 40.8984 28.808 41.1559C29.0556 41.4134 29.3914 41.5585 29.7419 41.5592H46.0603C46.4112 41.5592 46.7478 41.4145 46.996 41.157C47.2442 40.8994 47.3836 40.55 47.3836 40.1858V34.9962C47.3829 34.139 47.2194 33.2904 46.9026 32.4988C46.5858 31.7072 46.1218 30.9882 45.5372 30.3827C44.9525 29.7773 44.2587 29.2974 43.4953 28.9703C42.7319 28.6432 41.9139 28.4755 41.088 28.4766Z" fill="#868686"/>
<path d="M60.2324 126.464H15.5629C13.4089 126.464 11.3432 127.352 9.82013 128.933C8.29706 130.514 7.44141 132.658 7.44141 134.893V137H68.3539V134.893C68.3539 132.658 67.4982 130.514 65.9751 128.933C64.4521 127.352 62.3864 126.464 60.2324 126.464Z" fill="black"/>
</svg>
