<svg width="21" height="21" viewBox="0 0 21 21" fill="none" xmlns="http://www.w3.org/2000/svg">
<g clip-path="url(#clip0_24_32)">
<mask id="mask0_24_32" style="mask-type:luminance" maskUnits="userSpaceOnUse" x="0" y="0" width="21" height="21">
<path d="M21 0H0V21H21V0Z" fill="white"/>
</mask>
<g mask="url(#mask0_24_32)">
<path d="M17.9317 3.0744C15.9514 1.09305 13.3178 0.00105 10.5121 0C4.73049 0 0.0252013 4.70295 0.0231012 10.4842C0.0220512 12.3322 0.505074 14.1361 1.42282 15.7258L0 21L5.49493 19.7012C7.02695 20.537 8.75112 20.9769 10.5068 20.9779H10.511C16.2916 20.9779 20.9968 16.2739 21 10.4937C21.0021 7.69125 19.9121 5.0568 17.9317 3.0744ZM15.6437 14.2317C15.4253 14.8438 14.3552 15.434 13.8743 15.477C13.3934 15.5211 12.9429 15.6943 10.7294 14.8218C8.06543 13.7718 6.38326 11.0408 6.25306 10.8665C6.12181 10.6911 5.18304 9.4458 5.18304 8.1564C5.18304 6.867 5.86033 6.2328 6.10082 5.97135C6.34127 5.70885 6.62477 5.64375 6.80015 5.64375C6.97445 5.64375 7.1498 5.64375 7.30205 5.65005C7.48899 5.6574 7.69584 5.66685 7.89219 6.1026C8.12532 6.6213 8.63457 7.917 8.69967 8.04825C8.76477 8.1795 8.80891 8.3328 8.72172 8.5071C8.63457 8.6814 8.59047 8.7906 8.46027 8.9439C8.32902 9.0972 8.18517 9.28515 8.06753 9.40275C7.93628 9.53295 7.79979 9.67575 7.95204 9.9372C8.10537 10.1997 8.63037 11.0575 9.4095 11.7516C10.4113 12.6441 11.2545 12.9202 11.517 13.0525C11.7795 13.1838 11.9317 13.1617 12.085 12.9864C12.2383 12.8121 12.7403 12.222 12.9146 11.9595C13.0889 11.697 13.2643 11.7411 13.5047 11.8282C13.7452 11.9154 15.0336 12.5496 15.2951 12.6808C15.5576 12.8121 15.7319 12.8772 15.797 12.9864C15.8621 13.0945 15.8621 13.6195 15.6437 14.2317Z" fill="#D3D664"/>
</g>
</g>
<defs>
<clipPath id="clip0_24_32">
<rect width="21" height="21" fill="white"/>
</clipPath>
</defs>
</svg>
